<svg aria-hidden="true" style="width:0;height:0;position:absolute;overflow:hidden" xmlns="http://www.w3.org/2000/svg"><defs><symbol id="icon-cross" viewBox="0 0 32 32"><path fill="none" stroke="#86e543" style="stroke:var(--color1,#86e543)" stroke-linejoin="round" stroke-linecap="round" stroke-width="3" d="M30.4 1.6 1.6 30.4m0-28.8 28.8 28.8"/></symbol><symbol id="icon-down-arrow" viewBox="0 0 32 32"><path d="M17.714 25.207a2.284 2.284 0 0 1-3.562.004l-.003-.004L1.034 8.86a2.286 2.286 0 0 1 1.783-3.717h26.227a2.286 2.286 0 0 1 1.779 3.721l.003-.004-13.111 16.347z"/></symbol><symbol id="icon-facebook" viewBox="0 0 32 32"><path d="M24 10.363h-5.904V7.04c0-1.248.963-1.539 1.643-1.539h4.165V.018l-5.736-.019c-6.371 0-7.821 4.091-7.821 6.707v3.653h-3.68v5.653h3.68v15.987h7.749V16.01h5.227L24 10.362z"/></symbol><symbol id="icon-instagram" viewBox="0 0 32 32"><path d="M31.66 3.077a1.846 1.846 0 1 1-3.692 0 1.846 1.846 0 0 1 3.692 0zM16.891 28.923C9.754 28.923 3.968 23.137 3.968 16S9.754 3.077 16.891 3.077c7.137 0 12.923 5.786 12.923 12.923s-5.786 12.923-12.923 12.923zm0-4.308a8.615 8.615 0 1 0 0-17.23 8.615 8.615 0 1 0 0 17.23z"/></symbol><symbol id="icon-up-arrow" viewBox="0 0 32 32"><path d="M17.785 6.805a2.283 2.283 0 0 0-3.567-.004l-.003.004L1.152 23.146a2.286 2.286 0 0 0 1.785 3.712h26.126a2.285 2.285 0 0 0 1.779-3.717l.003.004L17.787 6.804z"/></symbol><symbol id="icon-youtube" viewBox="0 0 32 32"><path d="M28.501 5.973c1.379.349 2.461 1.387 2.829 2.701.669 2.384.669 7.36.669 7.36s0 4.973-.667 7.357c-.371 1.315-1.453 2.307-2.832 2.659-2.496.64-12.501.64-12.501.64s-10.005 0-12.501-.64c-1.379-.352-2.461-1.344-2.832-2.659-.667-2.384-.667-7.36-.667-7.36s0-4.973.667-7.357a3.937 3.937 0 0 1 2.808-2.696l.027-.006C5.994 5.332 16 5.332 16 5.332s10.005 0 12.501.64zm-15.773 5.544v9.032l8.363-4.517-8.363-4.512z"/></symbol><symbol id="icon-like" viewBox="0 0 32 32"><path fill="none" stroke-linejoin="round" stroke-linecap="round" stroke-width="2.667" d="M2.787 17.889a1.34 1.34 0 0 0 .348 1.014 1.33 1.33 0 0 0 .982.43h2.55a1.335 1.335 0 0 0 1.334-1.334V4.666a1.334 1.334 0 0 0-1.334-1.334h-1.44a1.336 1.336 0 0 0-1.329 1.222L2.787 17.887h-.001zM12 17.75c0 .557.347 1.056.85 1.293 1.099.519 2.972 1.561 3.817 2.969 1.089 1.816 1.294 5.097 1.327 5.848.005.105.002.211.016.315.181 1.302 2.693-.219 3.657-1.827.523-.872.59-2.018.535-2.913-.059-.957-.34-1.882-.615-2.801L21 18.676h7.238a1.319 1.319 0 0 0 1.063-.528 1.332 1.332 0 0 0 .22-1.167l-3.58-12.677a1.33 1.33 0 0 0-1.284-.971H13.333A1.33 1.33 0 0 0 12 4.667V17.75z"/></symbol><symbol id="icon-like-bad" viewBox="0 0 48 48" fill="none" xmlns="http://www.w3.org/2000/svg"><path d="M4.18 21.166A2 2 0 0 1 6.175 19H10a2 2 0 0 1 2 2v20a2 2 0 0 1-2 2H7.84a2 2 0 0 1-1.993-1.834l-1.666-20H4.18Zm13.82.209c0-.836.52-1.584 1.275-1.94 1.649-.778 4.458-2.341 5.725-4.454 1.633-2.724 1.94-7.645 1.99-8.772.008-.158.004-.316.025-.472.27-1.953 4.04.328 5.485 2.74.785 1.308.885 3.027.803 4.37-.09 1.435-.51 2.823-.923 4.201l-.88 2.937h10.857a2.001 2.001 0 0 1 1.925 2.543l-5.37 19.016A2 2 0 0 1 36.986 43H20a2 2 0 0 1-2-2V21.375Z" stroke="#01383A" stroke-width="4" stroke-linecap="round" stroke-linejoin="round"/></symbol></defs></svg>