<svg aria-hidden="true" style="position:absolute;width:0;height:0;overflow:hidden" xmlns="http://www.w3.org/2000/svg">
  <defs>
    <symbol id="icon-cross" viewBox="0 0 32 32">
      <path fill="none" stroke="#86e543" style="stroke: var(--color1, #86e543)" stroke-linejoin="round"
        stroke-linecap="round" stroke-miterlimit="4" stroke-width="3" d="M30.4 1.6l-28.8 28.8M1.6 1.6l28.8 28.8"></path>
    </symbol>
    <symbol id="icon-down-arrow" viewBox="0 0 32 32">
      <path
        d="M17.714 25.207a2.284 2.284 0 0 1-3.562.004l-.003-.004L1.034 8.86a2.286 2.286 0 0 1 1.783-3.717h26.227a2.286 2.286 0 0 1 1.779 3.721l.003-.004-13.111 16.347z" />
    </symbol>
    <symbol id="icon-facebook" viewBox="0 0 32 32">
      <path
        d="M24 10.363h-5.904V7.04c0-1.248.963-1.539 1.643-1.539h4.165V.018l-5.736-.019c-6.371 0-7.821 4.091-7.821 6.707v3.653h-3.68v5.653h3.68v15.987h7.749V16.01h5.227L24 10.362z" />
    </symbol>
    <symbol id="icon-instagram" viewBox="0 0 32 32">
      <path
        d="M31.66 3.077a1.846 1.846 0 1 1-3.692 0 1.846 1.846 0 0 1 3.692 0zM16.891 28.923C9.754 28.923 3.968 23.137 3.968 16S9.754 3.077 16.891 3.077c7.137 0 12.923 5.786 12.923 12.923s-5.786 12.923-12.923 12.923zm0-4.308a8.615 8.615 0 1 0 0-17.23 8.615 8.615 0 1 0 0 17.23z" />
    </symbol>
    <symbol id="icon-up-arrow" viewBox="0 0 32 32">
      <path
        d="M17.785 6.805a2.283 2.283 0 0 0-3.567-.004l-.003.004L1.152 23.146a2.286 2.286 0 0 0 1.785 3.712h26.126a2.285 2.285 0 0 0 1.779-3.717l.003.004L17.787 6.804z" />
    </symbol>
    <symbol id="icon-youtube" viewBox="0 0 32 32">
      <path
        d="M28.501 5.973c1.379.349 2.461 1.387 2.829 2.701.669 2.384.669 7.36.669 7.36s0 4.973-.667 7.357c-.371 1.315-1.453 2.307-2.832 2.659-2.496.64-12.501.64-12.501.64s-10.005 0-12.501-.64c-1.379-.352-2.461-1.344-2.832-2.659-.667-2.384-.667-7.36-.667-7.36s0-4.973.667-7.357a3.937 3.937 0 0 1 2.808-2.696l.027-.006C5.994 5.332 16 5.332 16 5.332s10.005 0 12.501.64zm-15.773 5.544v9.032l8.363-4.517-8.363-4.512z" />
    </symbol>
    <symbol id="icon-like" viewBox="0 0 32 32">
      <path fill="none" stroke-linejoin="round"
        stroke-linecap="round" stroke-miterlimit="4" stroke-width="2.6667"
        d="M2.787 17.889c-0.015 0.184 0.008 0.369 0.068 0.544s0.155 0.335 0.28 0.47c0.125 0.136 0.277 0.244 0.446 0.318s0.352 0.112 0.536 0.112h2.55c0.354 0 0.693-0.14 0.943-0.391s0.391-0.589 0.391-0.943v-13.333c0-0.354-0.141-0.693-0.391-0.943s-0.589-0.391-0.943-0.391h-1.44c-0.334 0-0.657 0.126-0.903 0.352s-0.398 0.537-0.426 0.87l-1.111 13.333h-0.001zM12 17.75c0 0.557 0.347 1.056 0.85 1.293 1.099 0.519 2.972 1.561 3.817 2.969 1.089 1.816 1.294 5.097 1.327 5.848 0.005 0.105 0.002 0.211 0.016 0.315 0.181 1.302 2.693-0.219 3.657-1.827 0.523-0.872 0.59-2.018 0.535-2.913-0.059-0.957-0.34-1.882-0.615-2.801l-0.587-1.958h7.238c0.206 0 0.409-0.048 0.594-0.139s0.345-0.225 0.469-0.389 0.209-0.355 0.247-0.558c0.038-0.202 0.029-0.411-0.027-0.609l-3.58-12.677c-0.079-0.28-0.247-0.526-0.479-0.701s-0.514-0.27-0.805-0.27h-11.324c-0.354 0-0.693 0.14-0.943 0.391s-0.39 0.589-0.39 0.943v13.083z">
      </path>
    </symbol>
    <symbol id="icon-like-bad"  viewBox="0 0 48 48" fill="none"
      xmlns="http://www.w3.org/2000/svg">
      <path
        d="M4.17975 21.166C4.15678 20.8902 4.19131 20.6126 4.28117 20.3507C4.37102 20.0889 4.51424 19.8486 4.70176 19.645C4.88928 19.4415 5.11702 19.279 5.37057 19.168C5.62412 19.0569 5.89796 18.9997 6.17475 19H9.99975C10.5302 19 11.0389 19.2107 11.414 19.5858C11.789 19.9609 11.9998 20.4696 11.9998 21V41C11.9998 41.5304 11.789 42.0391 11.414 42.4142C11.0389 42.7893 10.5302 43 9.99975 43H7.83975C7.33807 43 6.85472 42.8114 6.48556 42.4717C6.1164 42.132 5.88839 41.6659 5.84675 41.166L4.18075 21.166H4.17975ZM17.9998 21.375C17.9998 20.539 18.5198 19.791 19.2748 19.435C20.9238 18.657 23.7328 17.094 24.9998 14.981C26.6328 12.257 26.9408 7.336 26.9908 6.209C26.9978 6.051 26.9938 5.893 27.0148 5.737C27.2858 3.784 31.0548 6.065 32.4998 8.477C33.2848 9.785 33.3848 11.504 33.3028 12.847C33.2138 14.282 32.7928 15.67 32.3798 17.048L31.4998 19.985H42.3568C42.6658 19.985 42.9706 20.0566 43.2473 20.1941C43.524 20.3317 43.765 20.5315 43.9515 20.7779C44.138 21.0243 44.2649 21.3105 44.3222 21.6142C44.3795 21.9178 44.3656 22.2306 44.2818 22.528L38.9118 41.544C38.7932 41.9634 38.5409 42.3326 38.1932 42.5954C37.8456 42.8582 37.4216 43.0003 36.9858 43H19.9998C19.4693 43 18.9606 42.7893 18.5855 42.4142C18.2105 42.0391 17.9998 41.5304 17.9998 41V21.375Z"
        stroke="#01383A" stroke-width="4" stroke-linecap="round" stroke-linejoin="round" />


    </symbol>
  </defs>
</svg>